HIERARCHY
ROOT joint_Root
{
	OFFSET 0.0 0.0 0.0
	CHANNELS 6 Xposition Yposition Zposition Zrotation Xrotation Yrotation 
	JOINT Hips
	{
		OFFSET -0.726466 93.3139 -2.00062
		CHANNELS 6 Xposition Yposition Zposition Zrotation Xrotation Yrotation 
		JOINT Spine
		{
			OFFSET 15.7357 0.0 0.0
			CHANNELS 6 Xposition Yposition Zposition Zrotation Xrotation Yrotation 
			JOINT Chest
			{
				OFFSET 8.98455 -0.406207 0.0
				CHANNELS 6 Xposition Yposition Zposition Zrotation Xrotation Yrotation 
				JOINT Neck
				{
					OFFSET 16.3773 0.0 0.0
					CHANNELS 6 Xposition Yposition Zposition Zrotation Xrotation Yrotation 
					JOINT Head
					{
						OFFSET 6.45672 0.0 0.0
						CHANNELS 6 Xposition Yposition Zposition Zrotation Xrotation Yrotation 
						End Site
						{
							OFFSET 0.0 0.0 0.0
						}
					}
				}
				JOINT Shoulder_L
				{
					OFFSET 12.9942 -0.242716 4.98039
					CHANNELS 6 Xposition Yposition Zposition Zrotation Xrotation Yrotation 
					JOINT UpperArm_L
					{
						OFFSET 5.34809 0.0 0.0
						CHANNELS 6 Xposition Yposition Zposition Zrotation Xrotation Yrotation 
						JOINT LowerArm_L
						{
							OFFSET 24.3286 1.87007e-05 0.0
							CHANNELS 6 Xposition Yposition Zposition Zrotation Xrotation Yrotation 
							JOINT Hand_L
							{
								OFFSET 22.2916 0.0 0.0
								CHANNELS 6 Xposition Yposition Zposition Zrotation Xrotation Yrotation 
								End Site
								{
									OFFSET 0.0 0.0 0.0
								}
							}
						}
					}
				}
				JOINT Shoulder_R
				{
					OFFSET 12.9945 -0.242716 -4.98039
					CHANNELS 6 Xposition Yposition Zposition Zrotation Xrotation Yrotation 
					JOINT UpperArm_R
					{
						OFFSET -5.34813 0.0 0.0
						CHANNELS 6 Xposition Yposition Zposition Zrotation Xrotation Yrotation 
						JOINT LowerArm_R
						{
							OFFSET -24.3289 0.000322201 0.0
							CHANNELS 6 Xposition Yposition Zposition Zrotation Xrotation Yrotation 
							JOINT Hand_R
							{
								OFFSET -22.2915 -0.000108084 0.0
								CHANNELS 6 Xposition Yposition Zposition Zrotation Xrotation Yrotation 
								End Site
								{
									OFFSET 0.0 0.0 0.0
								}
							}
						}
					}
				}
			}
		}
		JOINT UpperLeg_L
		{
			OFFSET -2.19248 -6.46944 0.0
			CHANNELS 6 Xposition Yposition Zposition Zrotation Xrotation Yrotation 
			JOINT LowerLeg_L
			{
				OFFSET 39.0811 0.0 -1.23785e-05
				CHANNELS 6 Xposition Yposition Zposition Zrotation Xrotation Yrotation 
				JOINT Foot_L
				{
					OFFSET 40.9854 0.0 -1.26872e-05
					CHANNELS 6 Xposition Yposition Zposition Zrotation Xrotation Yrotation 
					JOINT Toes_L
					{
						OFFSET 11.7543 0.0 0.0
						CHANNELS 6 Xposition Yposition Zposition Zrotation Xrotation Yrotation 
						End Site
						{
							OFFSET 0.0 0.0 0.0
						}
					}
				}
			}
		}
		JOINT UpperLeg_R
		{
			OFFSET -2.19251 6.46944 0.0
			CHANNELS 6 Xposition Yposition Zposition Zrotation Xrotation Yrotation 
			JOINT LowerLeg_R
			{
				OFFSET -39.0811 -0.00228153 -0.0401928
				CHANNELS 6 Xposition Yposition Zposition Zrotation Xrotation Yrotation 
				JOINT Foot_R
				{
					OFFSET -40.9854 0.0 0.0
					CHANNELS 6 Xposition Yposition Zposition Zrotation Xrotation Yrotation 
					JOINT Toes_R
					{
						OFFSET -11.7543 0.0 0.0
						CHANNELS 6 Xposition Yposition Zposition Zrotation Xrotation Yrotation 
						End Site
						{
							OFFSET 0.0 0.0 0.0
						}
					}
				}
			}
		}
	}
}
MOTION
Frames:	7
Frame Time:	0.0333333
0.000000 0.000000 0.000000 0.000000 0.000000 -0.000000 -1.307050 92.136400 -2.628540 87.496600 0.310466 3.139370 15.735700 0.000005 -0.000001 84.047400 85.710000 -83.882600 8.984550 -0.406207 -0.000000 0.769114 -0.899541 0.335392 16.377300 -0.000001 -0.000001 0.119101 -1.780770 -0.503558 6.456720 -0.000001 -0.000000 -0.172405 -1.103230 5.607870 12.994200 -0.242716 4.980390 -89.556400 -1.387830 -72.271400 5.348090 -0.000007 -0.000001 -70.397400 31.201000 -13.268800 24.328600 0.000019 0.000005 2.520990 5.727230 -23.806400 22.291600 -0.000001 0.000005 6.226550 5.527190 -7.671830 12.994500 -0.242716 -4.980390 87.575300 7.094740 -71.076300 -5.348130 -0.000001 -0.000004 -65.836800 27.804000 -12.016400 -24.328900 0.000322 -0.000009 -1.063810 -3.210010 -18.328900 -22.291500 -0.000108 -0.000004 12.837400 5.527690 -7.694260 -2.192480 -6.469440 -0.000000 -168.121000 -15.875400 -3.883260 39.081100 -0.000007 -0.000012 -0.177281 0.463828 20.917800 40.985400 -0.000006 -0.000013 -6.623980 3.580700 -61.854700 11.754300 -0.000000 0.000003 -0.000129 -0.001282 -16.626400 -2.192510 6.469440 -0.000001 174.755000 21.305600 178.612000 -39.081100 -0.002282 -0.040193 -0.048092 0.150038 18.915800 -40.985400 0.000008 0.000006 -3.513620 3.226810 -62.287600 -11.754300 -0.000006 -0.000006 -0.005071 -0.062146 -19.101700
0.000000 0.000000 0.000000 0.000000 0.000000 -0.000000 -1.311670 92.141100 -2.774600 87.479400 0.358548 3.228090 15.735700 0.000005 -0.000001 83.698900 85.683000 -83.552900 8.984550 -0.406207 -0.000000 0.817151 -0.956115 0.298490 16.377300 -0.000001 -0.000001 -0.009166 -1.763450 -0.466517 6.456720 -0.000001 -0.000000 -0.281612 -1.112260 5.794450 12.994200 -0.242716 4.980390 -89.509500 -1.525480 -72.172800 5.348090 -0.000007 -0.000001 -70.371100 27.226900 -13.422300 24.328600 0.000019 0.000005 2.800630 6.481150 -23.430900 22.291600 -0.000001 0.000005 7.119610 5.535340 -8.031590 12.994500 -0.242716 -4.980390 87.608400 6.980100 -71.033300 -5.348130 -0.000001 -0.000004 -65.034400 23.989600 -12.643700 -24.328900 0.000322 -0.000009 -0.940892 -3.033280 -17.224400 -22.291500 -0.000108 -0.000004 13.650800 5.529600 -7.777330 -2.192480 -6.469440 -0.000000 -168.126000 -15.758100 -3.946750 39.081100 -0.000007 -0.000012 -0.176451 0.460421 20.969000 40.985400 -0.000006 -0.000013 -6.609080 3.501250 -61.780400 11.754300 -0.000000 0.000003 -0.000124 -0.001237 -16.624800 -2.192510 6.469440 -0.000001 174.779000 21.403200 178.565000 -39.081100 -0.002282 -0.040193 -0.045356 0.141520 18.981700 -40.985400 0.000008 0.000006 -3.420240 3.255980 -62.223700 -11.754300 -0.000006 -0.000006 -0.005055 -0.061999 -19.095700
0.000000 0.000000 0.000000 0.000000 0.000000 -0.000000 -1.311170 92.154500 -2.946280 87.484600 0.367372 3.264390 15.735700 0.000005 -0.000001 83.921800 85.684700 -83.798900 8.984550 -0.406207 -0.000000 0.817219 -0.920970 0.252183 16.377300 -0.000001 -0.000001 -0.116463 -1.754160 -0.451872 6.456720 -0.000001 -0.000000 -0.432016 -1.212490 5.912680 12.994200 -0.242716 4.980390 -89.473100 -1.630550 -72.090300 5.348090 -0.000007 -0.000001 -69.156000 22.655500 -14.358800 24.328600 0.000019 0.000005 2.552440 6.142710 -22.616000 22.291600 -0.000001 0.000005 8.255900 5.534820 -8.008790 12.994500 -0.242716 -4.980390 87.659600 6.776190 -70.894700 -5.348130 -0.000001 -0.000004 -63.497100 19.250500 -13.793500 -24.328900 0.000322 -0.000009 -0.935829 -3.311450 -15.773600 -22.291500 -0.000108 -0.000004 14.189200 5.526920 -7.660930 -2.192480 -6.469440 -0.000000 -168.141000 -15.786000 -4.016610 39.081100 -0.000007 -0.000012 -0.176921 0.462865 20.918600 40.985400 -0.000006 -0.000013 -6.579630 3.565100 -61.628100 11.754300 -0.000000 0.000003 -0.000157 -0.001506 -16.634700 -2.192510 6.469440 -0.000001 174.822000 21.430800 178.455000 -39.081100 -0.002282 -0.040193 -0.042581 0.133261 19.007200 -40.985400 0.000008 0.000006 -3.354220 3.219330 -62.120500 -11.754300 -0.000006 -0.000006 -0.005298 -0.064325 -19.190500
0.000000 0.000000 0.000000 0.000000 0.000000 -0.000000 -1.307410 92.154700 -3.094390 87.487900 0.376098 3.324040 15.735700 0.000005 -0.000001 84.064600 85.687400 -83.959400 8.984550 -0.406207 -0.000000 0.813852 -0.897953 0.216533 16.377300 -0.000001 -0.000001 -0.264741 -1.736630 -0.490190 6.456720 -0.000001 -0.000000 -0.537480 -1.240260 5.985960 12.994200 -0.242716 4.980390 -89.407800 -1.823700 -72.006600 5.348090 -0.000007 -0.000001 -67.240800 16.745600 -15.799700 24.328600 0.000019 0.000005 2.399400 6.082690 -21.575100 22.291600 -0.000001 0.000005 9.533120 5.542440 -8.354080 12.994500 -0.242716 -4.980390 87.766500 6.436990 -70.818200 -5.348130 -0.000001 -0.000004 -61.404600 13.513800 -15.408100 -24.328900 0.000322 -0.000009 -0.650430 -2.561480 -14.229000 -22.291500 -0.000108 -0.000004 15.457100 5.517690 -7.266000 -2.192480 -6.469440 -0.000000 -168.170000 -15.883300 -4.121210 39.081100 -0.000007 -0.000012 -0.174155 0.453415 21.011800 40.985400 -0.000006 -0.000013 -6.525000 3.606360 -61.554300 11.754300 -0.000000 0.000003 -0.000140 -0.001368 -16.629600 -2.192510 6.469440 -0.000001 174.828000 21.433100 178.375000 -39.081100 -0.002282 -0.040193 -0.044052 0.136994 19.076500 -40.985400 0.000008 0.000006 -3.379270 3.199300 -62.053900 -11.754300 -0.000006 -0.000006 -0.005434 -0.065604 -19.242700
0.000000 0.000000 0.000000 0.000000 0.000000 -0.000000 -1.329860 92.159800 -3.242860 87.493300 0.393316 3.387260 15.735700 0.000005 -0.000001 84.004600 85.702800 -83.927400 8.984550 -0.406207 -0.000000 0.782036 -0.902035 0.160545 16.377300 -0.000001 -0.000001 -0.455672 -1.687530 -0.555801 6.456720 -0.000001 -0.000000 -0.721445 -1.276090 6.057010 12.994200 -0.242716 4.980390 -89.278700 -2.210230 -71.920600 5.348090 -0.000007 -0.000001 -65.000700 9.598360 -17.471600 24.328600 0.000019 0.000005 2.085010 5.490380 -20.831500 22.291600 -0.000001 0.000005 10.571700 5.542840 -8.372980 12.994500 -0.242716 -4.980390 87.857800 6.119550 -70.664300 -5.348130 -0.000001 -0.000004 -58.900400 6.546420 -17.470400 -24.328900 0.000322 -0.000009 -0.486530 -2.125740 -12.867800 -22.291500 -0.000108 -0.000004 16.631300 5.504550 -6.718910 -2.192480 -6.469440 -0.000000 -168.164000 -15.844800 -4.160950 39.081100 -0.000007 -0.000012 -0.176030 0.458872 20.987800 40.985400 -0.000006 -0.000013 -6.523840 3.619160 -61.434400 11.754300 -0.000000 0.000003 -0.000142 -0.001384 -16.630200 -2.192510 6.469440 -0.000001 174.845000 21.396500 178.312000 -39.081100 -0.002282 -0.040193 -0.045446 0.140698 19.117300 -40.985400 0.000008 0.000006 -3.378870 3.165430 -61.982800 -11.754300 -0.000006 -0.000006 -0.005530 -0.066509 -19.279600
0.000000 0.000000 0.000000 0.000000 0.000000 -0.000000 -1.346890 92.169100 -3.378090 87.452400 0.357644 3.402580 15.735700 0.000005 -0.000001 83.806800 85.747000 -83.714500 8.984550 -0.406207 -0.000000 0.691285 -0.923029 0.190123 16.377300 -0.000001 -0.000001 -0.760412 -1.589280 -0.646379 6.456720 -0.000001 -0.000000 -0.950987 -1.180640 5.993940 12.994200 -0.242716 4.980390 -89.158100 -2.562550 -71.806200 5.348090 -0.000007 -0.000001 -62.282700 1.918970 -19.397500 24.328600 0.000019 0.000005 1.715060 4.547280 -20.689500 22.291600 -0.000001 0.000005 11.332300 5.537330 -8.121200 12.994500 -0.242716 -4.980390 87.966700 5.767970 -70.544200 -5.348130 -0.000001 -0.000004 -56.057700 -1.161970 -19.926200 -24.328900 0.000322 -0.000009 -0.409473 -1.882870 -12.241000 -22.291500 -0.000108 -0.000004 17.292600 5.481260 -5.798480 -2.192480 -6.469440 -0.000000 -168.130000 -15.816900 -4.226800 39.081100 -0.000007 -0.000012 -0.175484 0.457791 20.973500 40.985400 -0.000006 -0.000013 -6.528450 3.576400 -61.343700 11.754300 -0.000000 0.000003 -0.000141 -0.001380 -16.630100 -2.192510 6.469440 -0.000001 174.957000 21.249100 178.209000 -39.081100 -0.002282 -0.040193 -0.044519 0.138073 19.111000 -40.985400 0.000008 0.000006 -3.303450 3.059540 -61.899800 -11.754300 -0.000006 -0.000006 -0.005336 -0.064680 -19.205000
0.000000 0.000000 0.000000 0.000000 0.000000 -0.000000 -1.362310 92.176100 -3.492790 87.449600 0.244508 3.374440 15.735700 0.000005 -0.000001 83.942600 85.820400 -83.853500 8.984550 -0.406207 -0.000000 0.547354 -0.887433 0.182408 16.377300 -0.000001 -0.000001 -1.222460 -1.435320 -0.650929 6.456720 -0.000001 -0.000000 -1.290560 -1.100360 5.908360 12.994200 -0.242716 4.980390 -89.018300 -2.942770 -71.542100 5.348090 -0.000007 -0.000001 -59.201300 -5.508120 -21.762500 24.328600 0.000019 0.000005 1.667090 4.365120 -20.925800 22.291600 -0.000001 0.000005 12.605600 5.542670 -8.363500 12.994500 -0.242716 -4.980390 88.113900 5.334370 -70.494800 -5.348130 -0.000001 -0.000004 -53.138700 -8.942420 -22.553700 -24.328900 0.000322 -0.000009 -0.288428 -1.293370 -12.528900 -22.291500 -0.000108 -0.000004 19.213100 5.458450 -4.947490 -2.192480 -6.469440 -0.000000 -168.159000 -15.892800 -4.313390 39.081100 -0.000007 -0.000012 -0.170640 0.445089 20.976300 40.985400 -0.000006 -0.000013 -6.519000 3.487720 -61.277700 11.754300 -0.000000 0.000003 -0.000115 -0.001156 -16.621800 -2.192510 6.469440 -0.000001 175.018000 21.136600 178.086000 -39.081100 -0.002282 -0.040193 -0.043718 0.135874 19.096500 -40.985400 0.000008 0.000006 -3.352910 3.076810 -61.811800 -11.754300 -0.000006 -0.000006 -0.005398 -0.065265 -19.228800
